#!OML:ASF E:\emotionWalksFemale\Project 1\Capture day 1\Session 1\Female1.ASF
:FULLY-SPECIFIED
:DEGREES
1639
root 8.75505 15.1667 41.0393 358.541 -191.833 -360.761
lowerback 5.28696 -2.95878 1.12776
upperback -4.5732 -3.59777 1.99131
thorax -7.7027 -1.70896 1.87919
lowerneck -1.59666 5.34841 4.582
upperneck 12.5847 8.3584 -6.73849
head 4.49507 4.22197 -2.40994
rclavicle -2.50469e-014 -2.14687e-014
rhumerus -53.1473 0.924596 -79.0357
rradius 37.865
rwrist 13.624
rhand -8.73197 -54.1991
rfingers 7.12502
rthumb 17.2044 996.543
lclavicle -2.50469e-014 -2.14687e-014
lhumerus -44.84 -8.88508 93.7706
lradius 44.5913
lwrist -17.6634
lhand -11.473 -31.5863
lfingers 7.12502
lthumb 14.5648 -2.11769
rfemur -9.09441 25.7056 20.2478
rtibia 32.2082
rfoot -22.531 -10.5463
rtoes -12.3938
lfemur -3.53984 -19.6311 -25.3038
ltibia 26.6996
lfoot -32.0498 24.5871
ltoes -14.7699
1640
root 8.72264 15.1612 41.0283 358.331 -192.028 -361.013
lowerback 5.34595 -2.77654 0.848734
upperback -4.5198 -3.38583 1.964
thorax -7.66792 -1.59356 1.98217
lowerneck -1.96133 5.27936 4.56705
upperneck 12.8554 8.2592 -6.6427
head 4.62868 4.1663 -2.3692
rclavicle 2.76311e-014 1.59028e-015
rhumerus -53.1348 0.311488 -78.6974
rradius 37.3635
rwrist 13.5625
rhand -8.89151 -54.2624
rfingers 7.12502
rthumb 17.0509 996.466
lclavicle 2.76311e-014 1.59028e-015
lhumerus -44.6891 -9.08054 94.0852
lradius 44.1403
lwrist -17.9321
lhand -10.9355 -31.9677
lfingers 7.12502
lthumb 15.0826 -2.53723
rfemur -9.14062 25.1032 19.9112
rtibia 32.5177
rfoot -22.587 -10.3792
rtoes -14.6869
lfemur -3.21875 -19.8192 -25.8481
ltibia 26.6038
lfoot -32.2381 24.6188
ltoes -13.1397
1641
root 8.69134 15.1571 41.0173 358.135 -192.158 -361.261
lowerback 5.41203 -2.64236 0.636573
upperback -4.45462 -3.23257 1.93921
thorax -7.62884 -1.51072 2.05759
lowerneck -2.55446 5.27356 4.56775
upperneck 13.3223 8.27542 -6.66208
head 4.87352 4.15823 -2.35017
rclavicle -1.2921e-014 1.19271e-014
rhumerus -52.8169 -0.37999 -78.3047
rradius 36.5351
rwrist 13.5972
rhand -9.19249 -54.3997
rfingers 7.12502
rthumb 16.7611 996.304
lclavicle -1.2921e-014 1.19271e-014
lhumerus -44.6617 -9.00593 94.3441
lradius 43.8337
lwrist -18.1618
lhand -10.6361 -32.125
lfingers 7.12502
lthumb 15.371 -2.71635
rfemur -9.22381 24.549 19.5804
rtibia 32.9391
rfoot -22.488 -10.2391
rtoes -14.8821
lfemur -2.88846 -19.8666 -26.3405
ltibia 26.3736
lfoot -32.1902 24.6834
ltoes -11.548
1642
root 8.65983 15.1566 41.0117 358.242 -192.21 -361.232
lowerback 5.43521 -2.61633 0.756208
upperback -4.56147 -3.17145 2.00656
thorax -7.76204 -1.47989 2.05972
lowerneck -2.73476 5.26841 4.47243
upperneck 13.4554 8.29046 -6.70528
head 4.94372 4.15567 -2.33992
rclavicle 4.92986e-014 -1.59028e-014
rhumerus -52.5325 -0.802279 -78.029
rradius 35.6248
rwrist 13.5831
rhand -9.46305 -54.6091
rfingers 7.12502
rthumb 16.5007 996.073
lclavicle 4.92986e-014 -1.59028e-014
lhumerus -44.8148 -8.86995 94.5892
lradius 43.5166
lwrist -18.3958
lhand -10.6498 -32.1928
lfingers 7.12502
lthumb 15.3578 -2.78313
rfemur -9.57043 23.9767 19.44
rtibia 33.2576
rfoot -22.2989 -9.69477
rtoes -13.1495
lfemur -2.97328 -19.8613 -26.3944
ltibia 26.3025
lfoot -32.1626 24.6455
ltoes -10.617
1643
root 8.62757 15.157 41.0065 358.357 -192.34 -361.214
lowerback 5.39555 -2.54802 0.927444
upperback -4.67426 -3.05528 2.00315
thorax -7.87308 -1.42787 1.9489
lowerneck -2.78302 5.22818 4.38577
upperneck 13.5843 8.2645 -6.72798
head 4.98733 4.13974 -2.33146
rclavicle 3.97569e-014 -2.78299e-014
rhumerus -52.547 -1.14481 -77.9468
rradius 35.056
rwrist 13.5301
rhand -9.61205 -54.9184
rfingers 7.12502
rthumb 16.3572 995.751
lclavicle 3.97569e-014 -2.78299e-014
lhumerus -45.0243 -9.16432 94.9095
lradius 43.1755
lwrist -18.8709
lhand -11.0844 -31.8379
lfingers 7.12502
lthumb 14.9392 -2.39664
rfemur -9.92597 23.3265 19.325
rtibia 33.5541
rfoot -22.0769 -10.1759
rtoes -12.3613
lfemur -3.0421 -19.9884 -26.5015
ltibia 26.2573
lfoot -32.2463 24.7762
ltoes -10.4039
1644
root 8.59648 15.1547 41.0036 358.416 -192.469 -361.082
lowerback 5.38775 -2.40794 1.14868
upperback -4.69312 -2.84188 2.01619
thorax -7.90464 -1.33313 1.81371
lowerneck -3.03136 5.09717 4.48528
upperneck 13.7858 8.1177 -6.90286
head 5.09335 4.05823 -2.4011
rclavicle -1.28216e-014 -1.43125e-014
rhumerus -52.4817 -1.71741 -77.6645
rradius 34.3995
rwrist 13.7611
rhand -9.69258 -55.3027
rfingers 7.12502
rthumb 16.2797 995.361
lclavicle -1.28216e-014 -1.43125e-014
lhumerus -45.0526 -9.55717 95.2805
lradius 42.8476
lwrist -19.0105
lhand -11.1096 -31.305
lfingers 7.12502
lthumb 14.9149 -1.86201
rfemur -10.1517 22.8283 19.463
rtibia 33.8356
rfoot -22.0032 -10.7278
rtoes -11.9057
lfemur -3.05137 -19.971 -26.4794
ltibia 26.2184
lfoot -32.2536 24.8034
ltoes -10.6048
1645
root 8.56729 15.1492 40.9958 358.249 -192.559 -361.174
lowerback 5.43855 -2.26398 1.17152
upperback -4.60598 -2.65823 1.95422
thorax -7.84772 -1.24957 1.71318
lowerneck -3.2936 5.00724 4.48411
upperneck 13.8402 7.98132 -6.9022
head 5.1464 3.9815 -2.40153
rclavicle -2.92213e-014 2.14687e-014
rhumerus -52.2518 -2.17722 -77.4392
rradius 33.6587
rwrist 13.8105
rhand -9.7881 -55.6675
rfingers 7.12502
rthumb 16.1877 994.988
lclavicle -2.92213e-014 2.14687e-014
lhumerus -44.9446 -9.58063 95.4619
lradius 42.4777
lwrist -19.0814
lhand -10.8242 -31.2522
lfingers 7.12502
lthumb 15.1898 -1.82978
rfemur -10.1566 22.2934 19.4635
rtibia 34.1289
rfoot -21.9172 -11.0327
rtoes -10.9701
lfemur -2.80856 -19.953 -26.7848
ltibia 26.1454
lfoot -32.3164 24.7738
ltoes -10.2365
1646
root 8.53998 15.1483 40.9866 358.162 -192.625 -361.416
lowerback 5.39127 -2.16536 1.06353
upperback -4.58686 -2.54705 1.87034
thorax -7.7999 -1.1938 1.66921
lowerneck -3.30214 4.92633 4.41154
upperneck 13.6723 7.8673 -6.9856
head 5.0896 3.91641 -2.42457
rclavicle 4.17448e-015 -6.04305e-014
rhumerus -52.0945 -2.42938 -77.2822
rradius 33.0206
rwrist 14.1297
rhand -9.66645 -56.0101
rfingers 7.12502
rthumb 16.3048 994.655
lclavicle 4.17448e-015 -6.04305e-014
lhumerus -45.0342 -9.55206 95.6271
lradius 42.2209
lwrist -19.287
lhand -10.8511 -31.2706
lfingers 7.12502
lthumb 15.1639 -1.84616
rfemur -10.2955 21.5918 19.2372
rtibia 34.3899
rfoot -21.9898 -11.3754
rtoes -10.7145
lfemur -2.69364 -20.07 -27.2266
ltibia 26.0837
lfoot -32.3803 24.9684
ltoes -10.5528
1647
root 8.51343 15.1467 40.9793 358.119 -192.716 -361.512
lowerback 5.49704 -2.04775 0.985493
upperback -4.61896 -2.3937 1.86374
thorax -7.89569 -1.11362 1.69309
lowerneck -3.66542 4.81261 4.22824
upperneck 13.9202 7.72018 -6.87914
head 5.20825 3.83091 -2.35905
rclavicle -2.78299e-014 1.03368e-014
rhumerus -52.0266 -2.65336 -77.1309
rradius 32.4777
rwrist 14.6302
rhand -9.53019 -56.2844
rfingers 7.12502
rthumb 16.436 994.392
lclavicle -2.78299e-014 1.03368e-014
lhumerus -45.1881 -9.88384 95.9408
lradius 42.022
lwrist -19.2972
lhand -10.5693 -31.0521
lfingers 7.12502
lthumb 15.4354 -1.64845
rfemur -10.4208 20.9907 19.197
rtibia 34.6117
rfoot -22.1041 -12.0392
rtoes -10.5319
lfemur -2.60615 -20.148 -27.4918
ltibia 26.0086
lfoot -32.2862 25.2268
ltoes -10.9531
1648
root 8.48833 15.1448 40.9744 358.063 -192.814 -361.387
lowerback 5.74002 -1.92164 1.08767
upperback -4.56988 -2.21353 1.87242
thorax -7.99203 -1.03147 1.63166
lowerneck -4.73071 4.83749 4.13677
upperneck 14.7287 7.7392 -6.53672
head 5.62651 3.82163 -2.19948
rclavicle -4.07509e-014 -3.73715e-014
rhumerus -51.8434 -2.92969 -77.1093
rradius 32.0584
rwrist 15.0771
rhand -9.10998 -56.1197
rfingers 7.12502
rthumb 16.8406 994.591
lclavicle -4.07509e-014 -3.73715e-014
lhumerus -44.96 -10.2447 96.0664
lradius 41.5153
lwrist -19.7171
lhand -10.0327 -31.1017
lfingers 7.12502
lthumb 15.9521 -1.73864
rfemur -10.4067 20.4777 19.4875
rtibia 34.7701
rfoot -21.9992 -12.8552
rtoes -9.0884
lfemur -2.4897 -20.1119 -27.4995
ltibia 25.9689
lfoot -32.1818 25.2498
ltoes -11.2937
1649
root 8.46451 15.1447 40.9684 358.057 -192.833 -361.25
lowerback 5.75089 -1.78572 1.41154
upperback -4.57303 -2.00448 1.80085
thorax -8.02015 -0.949007 1.34941
lowerneck -5.12018 4.7411 4.0846
upperneck 15.1369 7.61596 -6.38303
head 5.80619 3.75896 -2.1377
rclavicle -9.14409e-015 -3.18055e-015
rhumerus -51.9088 -3.0553 -77.2137
rradius 31.8055
rwrist 15.4088
rhand -8.80636 -55.7568
rfingers 7.12502
rthumb 17.1328 994.979
lclavicle -9.14409e-015 -3.18055e-015
lhumerus -45.0291 -10.1611 96.0003
lradius 41.229
lwrist -20.5287
lhand -9.59127 -31.5615
lfingers 7.12502
lthumb 16.3772 -2.23295
rfemur -10.3689 19.8974 19.7995
rtibia 34.8736
rfoot -21.8192 -13.4426
rtoes -6.42425
lfemur -2.45409 -20.1464 -27.4618
ltibia 25.969
lfoot -32.1987 25.2167
ltoes -12.1189
